<svg width="297" height="122" viewBox="0 0 297 122" fill="none" xmlns="http://www.w3.org/2000/svg">
<path d="M110.996 58.2029H102.396V47.0029H110.996V32.0029H124.096V47.0029H136.096V58.2029H124.096V77.2029C124.096 78.3362 124.196 79.4029 124.396 80.4029C124.663 81.3362 125.129 82.1362 125.796 82.8029C126.729 83.8695 128.063 84.4029 129.796 84.4029C130.929 84.4029 131.829 84.3029 132.496 84.1029C133.163 83.8362 133.796 83.5029 134.396 83.1029L138.096 94.6029C136.563 95.3362 134.896 95.8695 133.096 96.2029C131.363 96.6029 129.429 96.8029 127.296 96.8029C124.829 96.8029 122.596 96.4362 120.596 95.7029C118.663 94.9029 117.029 93.8362 115.696 92.5029C112.563 89.5029 110.996 85.2362 110.996 79.7029V58.2029ZM141.997 47.0029H156.697L164.797 77.7029H165.497L175.197 47.0029H188.697L198.497 77.7029H199.197L207.197 47.0029H221.697L205.997 96.0029H191.897L182.097 65.1029H181.397L171.597 96.0029H157.697L141.997 47.0029ZM234.966 39.9029C233.833 39.9029 232.733 39.7029 231.666 39.3029C230.666 38.8362 229.766 38.2362 228.966 37.5029C228.233 36.7029 227.633 35.8029 227.166 34.8029C226.766 33.8029 226.566 32.7029 226.566 31.5029C226.566 30.3029 226.766 29.2029 227.166 28.2029C227.633 27.2029 228.233 26.3362 228.966 25.6029C229.766 24.8029 230.666 24.2029 231.666 23.8029C232.733 23.3362 233.833 23.1029 234.966 23.1029C237.299 23.1029 239.299 23.9362 240.966 25.6029C242.633 27.2029 243.466 29.1695 243.466 31.5029C243.466 33.8362 242.633 35.8362 240.966 37.5029C239.299 39.1029 237.299 39.9029 234.966 39.9029ZM228.466 96.0029V47.0029H241.566V96.0029H228.466ZM253.545 96.0029V24.4029H266.645V96.0029H253.545ZM277.861 96.0029V24.4029H290.961V96.0029H277.861Z" fill="#F9FAFB"/>
<path d="M90.8938 85.4771C85.998 61.7966 57.274 2.80375 10.439 32.9628C-25.5547 56.1407 69.1627 60.4058 90.8938 85.4771Z" fill="#F9FAFB"/>
<path d="M81.5743 96.0463C73.541 84.6002 44.3055 59.5786 24.9218 85.372C10.0251 105.195 63.835 87.4251 81.5743 96.0463Z" fill="#F9FAFB"/>
</svg>
