<svg width="312" height="121" viewBox="0 0 312 121" fill="none" xmlns="http://www.w3.org/2000/svg">
<path d="M126 58.2H117.4V47H126V32H139.1V47H151.1V58.2H139.1V77.2C139.1 78.3333 139.2 79.4 139.4 80.4C139.667 81.3333 140.133 82.1333 140.8 82.8C141.733 83.8667 143.067 84.4 144.8 84.4C145.933 84.4 146.833 84.3 147.5 84.1C148.167 83.8333 148.8 83.5 149.4 83.1L153.1 94.6C151.567 95.3333 149.9 95.8667 148.1 96.2C146.367 96.6 144.433 96.8 142.3 96.8C139.833 96.8 137.6 96.4333 135.6 95.7C133.667 94.9 132.033 93.8333 130.7 92.5C127.567 89.5 126 85.2333 126 79.7V58.2ZM157.002 47H171.702L179.802 77.7H180.502L190.202 47H203.702L213.502 77.7H214.202L222.202 47H236.702L221.002 96H206.902L197.102 65.1H196.402L186.602 96H172.702L157.002 47ZM249.97 39.9C248.837 39.9 247.737 39.7 246.67 39.3C245.67 38.8333 244.77 38.2333 243.97 37.5C243.237 36.7 242.637 35.8 242.17 34.8C241.77 33.8 241.57 32.7 241.57 31.5C241.57 30.3 241.77 29.2 242.17 28.2C242.637 27.2 243.237 26.3333 243.97 25.6C244.77 24.8 245.67 24.2 246.67 23.8C247.737 23.3333 248.837 23.1 249.97 23.1C252.304 23.1 254.304 23.9333 255.97 25.6C257.637 27.2 258.47 29.1667 258.47 31.5C258.47 33.8333 257.637 35.8333 255.97 37.5C254.304 39.1 252.304 39.9 249.97 39.9ZM243.47 96V47H256.57V96H243.47ZM268.549 96V24.4H281.649V96H268.549ZM292.866 96V24.4H305.966V96H292.866Z" fill="#2C385C"/>
<path d="M100.762 66.3337C86.0078 47.1753 34.3869 6.67205 5.44582 54.2694C-16.7959 90.8488 70.258 53.2832 100.762 66.3337Z" fill="#2C385C"/>
<path d="M96.9999 79.9134C84.7715 73.1301 47.5397 63.4045 41.3803 95.0761C36.6467 119.416 77.2766 79.9134 96.9999 79.9134Z" fill="#2C385C"/>
</svg>
